GIL01_free4_RRA_states
nRows=6
nColumns=47

# SIMM Motion File Header:
name GIL01_free4_RRA_states
datacolumns 47
datarows 6
otherdata 1
range 0.89983000000000057000 0.90233000000000063000
endheader
time	pelvis_tx	pelvis_ty	pelvis_tz	pelvis_tilt	pelvis_list	pelvis_rotation	hip_flexion_r	hip_adduction_r	hip_rotation_r	knee_angle_r	ankle_angle_r	subtalar_angle_r	mtp_angle_r	hip_flexion_l	hip_adduction_l	hip_rotation_l	knee_angle_l	ankle_angle_l	subtalar_angle_l	mtp_angle_l	lumbar_extension	lumbar_bending	lumbar_rotation	pelvis_tx_u	pelvis_ty_u	pelvis_tz_u	pelvis_tilt_u	pelvis_list_u	pelvis_rotation_u	hip_flexion_r_u	hip_adduction_r_u	hip_rotation_r_u	knee_angle_r_u	ankle_angle_r_u	subtalar_angle_r_u	mtp_angle_r_u	hip_flexion_l_u	hip_adduction_l_u	hip_rotation_l_u	knee_angle_l_u	ankle_angle_l_u	subtalar_angle_l_u	mtp_angle_l_u	lumbar_extension_u	lumbar_bending_u	lumbar_rotation_u
      0.89983000000000057000	      0.75431941449463968000	      0.80297895057500268000	     -0.25463477146361052000	     -3.07860976658689590000	     -1.51412236028348480000	     -1.56381840800170350000	      9.57350741407861070000	      6.94269529123553130000	      4.85794312236943430000	    -13.56965979012369800000	      6.03811012617733490000	      0.00000000000003107089	     -0.00000000000002037195	     19.57222423009639600000	     -6.86619879985249690000	     -6.98987834011810350000	    -61.17611377963474700000	     -5.75898622494910390000	      0.00000000000016164497	     -0.00000000000015625810	      0.30220198813780269000	     -0.85486129131598509000	     -4.16418024817479980000	      0.84540841983118009000	      0.10013006403939514000	      0.10624729270114394000	     -0.72296722206543074000	     33.78941560794019200000	    -18.44646081280985000000	    -95.46884788793478500000	    -29.77479624075781900000	    -29.89162717574331300000	     51.94878308518153900000	     39.11319923646706100000	      0.00000000000022331663	     -0.00000000000011457395	    130.01331339056500000000	     56.36551848176211600000	    127.31318090231204000000	     96.38275602797446600000	    147.81997462082046000000	      0.00000000000060712720	     -0.00000000000068828057	    -10.16174103279486100000	    -69.64156530186556900000	     60.26283476020220300000
      0.90033000000000063000	      0.75474202707118310000	      0.80302882376117357000	     -0.25458170580596529000	     -3.07896013181882290000	     -1.49723472906173630000	     -1.57304633059016470000	      9.52579183432828460000	      6.92778083504861450000	      4.84294037973438040000	    -13.54371923707067200000	      6.05768042137624720000	      0.00000000000003118404	     -0.00000000000002042515	     19.63708108180449900000	     -6.83799825296125880000	     -6.92608888331878880000	    -61.12743705843818300000	     -5.68552880088969290000	      0.00000000000016194841	     -0.00000000000015660238	      0.29708651174539547000	     -0.88967970620564141000	     -4.13401380791164110000	      0.84504170644548460000	      0.09936174551961962600	      0.10601441081379687000	     -0.67869597581652863000	     33.76102562616893000000	    -18.46579594193160600000	    -95.39327720210535200000	    -29.88285168827649900000	    -30.11710951837173400000	     51.81314411464437300000	     39.16861122767809900000	      0.00000000000023682534	     -0.00000000000010868319	    129.41425142758280000000	     56.43612689959543600000	    127.84291036457979000000	     98.32275125813404800000	    146.01426624392022000000	      0.00000000000060675811	     -0.00000000000068896291	    -10.30003690860792700000	    -69.63138147644366400000	     60.40326002073010200000
      0.90083000000000057000	      0.75516445604272697000	      0.80307831139063746000	     -0.25452875798439828000	     -3.07928866033852300000	     -1.48036141344418600000	     -1.58228477799934410000	      9.47811431998286480000	      6.91281261422664260000	      4.82782825749337710000	    -13.51784691555145600000	      6.07727927799203550000	      0.00000000000003130155	     -0.00000000000002048387	     19.70163863310969500000	     -6.80976321355553260000	     -6.86203719591366300000	    -61.07779241945907200000	     -5.61296736821457380000	      0.00000000000016225189	     -0.00000000000015694672	      0.29190208211536278000	     -0.92449195933672168000	     -4.10377665828158110000	      0.84467404338569241000	      0.09858784858770360000	      0.10577593936698261000	     -0.63561143345883575000	     33.73216296679590400000	    -18.48857516879667900000	    -95.31660803600046000000	    -29.98985899041701600000	    -30.32912406038030500000	     51.67588815437263600000	     39.22726730604377800000	      0.00000000000022743601	     -0.00000000000010629265	    128.81609985406376000000	     56.50349167188338100000	    128.36204233478517000000	    100.25439747602161000000	    144.23610307141189000000	      0.00000000000060701077	     -0.00000000000068874778	    -10.43754729579791600000	    -69.61691695338377900000	     60.54566413464320400000
      0.90133000000000063000	      0.75558670097342440000	      0.80312741067896110000	     -0.25447593081133435000	     -3.07959594078380410000	     -1.46350264486376340000	     -1.59153547876181370000	      9.43047540738158750000	      6.89779115252559820000	      4.81261349851324920000	    -13.49204361535411500000	      6.09690822515165290000	      0.00000000000003141355	     -0.00000000000002053848	     19.76589733938031300000	     -6.78149530609236260000	     -6.79772863059138550000	    -61.02718407179043000000	     -5.54128807289945690000	      0.00000000000016255573	     -0.00000000000015729132	      0.28664910315570979000	     -0.95929590383866659000	     -4.07346782651714890000	      0.84430553393487529000	      0.09780836779071755400	      0.10553179978562820000	     -0.59371212660113704000	     33.70282774749592400000	    -18.51479237517608200000	    -95.23885246690017000000	    -30.09580735590756400000	    -30.52768137006239600000	     51.53703373957473800000	     39.28914275860690700000	      0.00000000000020849722	     -0.00000000000008128291	    128.21889534840597000000	     56.56758758207573100000	    128.87043596198905000000	    102.17757631805563000000	    142.48569167094624000000	      0.00000000000060928997	     -0.00000000000068925300	    -10.57422529396476200000	    -69.59813654512466000000	     60.68997162662792300000
      0.90183000000000058000	      0.75600876145218199000	      0.80317611882708873000	     -0.25442322714129967000	     -3.07988256965002490000	     -1.44665866457569630000	     -1.60080014265947470000	      9.38287564691764330000	      6.88271698539857100000	      4.79730281632169490000	    -13.46631014573165800000	      6.11656894979751890000	      0.00000000000003152153	     -0.00000000000002058785	     19.82985769169397700000	     -6.75319617510768300000	     -6.73316857332324850000	    -60.97561627232641300000	     -5.47047702307631840000	      0.00000000000016286047	     -0.00000000000015763631	      0.28132800295793037000	     -0.99408937085261784000	     -4.04308638176305560000	      0.84393627808078209000	      0.09702329986931697300	      0.10528192014289121000	     -0.55299597521513466000	     33.67301929749859800000	    -18.54444304300741200000	    -95.16002064847961600000	    -30.20068448611335700000	    -30.71279757793269000000	     51.39659607432872000000	     39.35419303334454400000	      0.00000000000021669343	     -0.00000000000009337559	    127.62267113202292000000	     56.62838866539291200000	    129.36794885767452000000	    104.09217754774032000000	    140.76320327114331000000	      0.00000000000061016575	     -0.00000000000068998359	    -10.71002630390728800000	    -69.57500600735082200000	     60.83610808001739700000
      0.90233000000000063000	      0.75643063714377501000	      0.80322443304672897000	     -0.25437064986061309000	     -3.08014913359729100000	     -1.42982970450709380000	     -1.61008049268971740000	      9.33531556421308650000	      6.86759064844781710000	      4.78190293734713290000	    -13.44064728036987000000	      6.13626294305750260000	      0.00000000000003163299	     -0.00000000000002063132	     19.89352017973753200000	     -6.72486747063725240000	     -6.66836251861990540000	    -60.92309334226742100000	     -5.40052018730498330000	      0.00000000000016316557	     -0.00000000000015798126	      0.27593923041524754000	     -1.02887017919759380000	     -4.01263142657626130000	      0.84356637632226261000	      0.09623264028800152000	      0.10502622426752882000	     -0.51346089801914008000	     33.64273725670378900000	    -18.57751897519071300000	    -95.08012408415228800000	    -30.30447903550165000000	    -30.88449515003854600000	     51.25459204415231800000	     39.42239307855869900000	      0.00000000000022521970	     -0.00000000000009726915	    127.02746300255154000000	     56.68587045143750200000	    129.85443975959112000000	    105.99808824373039000000	    139.06881100110073000000	      0.00000000000061012512	     -0.00000000000069036909	    -10.84490578234444800000	    -69.54749162641179800000	     60.98399551403710500000
